<svg width="22" height="22" viewBox="0 0 22 22" fill="none" xmlns="http://www.w3.org/2000/svg">
<path d="M14.2656 3.95312H14.4375C14.343 3.95312 14.2656 3.87578 14.2656 3.78125V3.95312H7.73438V3.78125C7.73438 3.87578 7.65703 3.95312 7.5625 3.95312H7.73438V5.5H6.1875V3.78125C6.1875 3.02285 6.8041 2.40625 7.5625 2.40625H14.4375C15.1959 2.40625 15.8125 3.02285 15.8125 3.78125V5.5H14.2656V3.95312ZM3.4375 5.5H18.5625C18.9428 5.5 19.25 5.80723 19.25 6.1875V6.875C19.25 6.96953 19.1727 7.04688 19.0781 7.04688H17.7805L17.2498 18.2832C17.2154 19.0158 16.6096 19.5938 15.877 19.5938H6.12305C5.38828 19.5938 4.78457 19.018 4.75019 18.2832L4.21953 7.04688H2.92188C2.82734 7.04688 2.75 6.96953 2.75 6.875V6.1875C2.75 5.80723 3.05723 5.5 3.4375 5.5ZM6.28848 18.0469H15.7115L16.2314 7.04688H5.76855L6.28848 18.0469Z" fill="#9C9C9C"/>
</svg>
