<svg width="28" height="28" viewBox="0 0 28 28" fill="none" xmlns="http://www.w3.org/2000/svg">
<path fill-rule="evenodd" clip-rule="evenodd" d="M12.1237 2.14661C13.3669 1.95113 14.6331 1.95113 15.8764 2.14661C16.0223 2.16956 16.1623 2.22103 16.2884 2.29808C16.4144 2.37513 16.5241 2.47626 16.6111 2.59569C16.698 2.71512 16.7606 2.85051 16.7953 2.99413C16.8299 3.13775 16.836 3.28679 16.813 3.43274C16.7901 3.57869 16.7386 3.7187 16.6616 3.84476C16.5845 3.97082 16.4834 4.08047 16.3639 4.16744C16.2445 4.25442 16.1091 4.31702 15.9655 4.35168C15.8219 4.38633 15.6728 4.39235 15.5269 4.36941C14.5152 4.21034 13.4849 4.21034 12.4732 4.36941C12.1784 4.41575 11.8773 4.3431 11.6361 4.16744C11.3949 3.99178 11.2334 3.72751 11.187 3.43274C11.1407 3.13798 11.2133 2.83688 11.389 2.59569C11.5647 2.35449 11.8289 2.19295 12.1237 2.14661V2.14661ZM8.51803 4.54039C8.69325 4.78152 8.7656 5.08234 8.7192 5.37677C8.6728 5.67121 8.51144 5.93519 8.27055 6.11075C7.44229 6.71353 6.71353 7.44229 6.11075 8.27055C5.9321 8.50347 5.66949 8.65733 5.37896 8.6993C5.08844 8.74126 4.79302 8.66799 4.55577 8.49515C4.31852 8.3223 4.15823 8.06355 4.10912 7.77415C4.06001 7.48475 4.12597 7.18761 4.29292 6.94617C5.03339 5.92823 5.92865 5.03247 6.94617 4.29142C7.06571 4.2045 7.2012 4.14199 7.34491 4.10746C7.48862 4.07293 7.63772 4.06706 7.78369 4.09019C7.92967 4.11331 8.06966 4.16497 8.19566 4.24222C8.32166 4.31947 8.4312 4.42079 8.51803 4.54039V4.54039ZM19.482 4.54039C19.569 4.42091 19.6786 4.31972 19.8046 4.24261C19.9307 4.1655 20.0707 4.11399 20.2167 4.091C20.3627 4.06802 20.5117 4.07402 20.6554 4.10867C20.799 4.14331 20.9344 4.20592 21.0539 4.29292C22.0719 5.03335 22.9676 5.92861 23.7086 6.94617C23.8843 7.18763 23.9568 7.48896 23.9102 7.78389C23.8637 8.07881 23.7019 8.34316 23.4604 8.51878C23.219 8.6944 22.9176 8.76691 22.6227 8.72036C22.3278 8.67381 22.0634 8.51201 21.8878 8.27055C21.2855 7.4424 20.5572 6.71365 19.7295 6.11075C19.4886 5.93519 19.3273 5.67121 19.2809 5.37677C19.2345 5.08234 19.3068 4.78152 19.482 4.54039V4.54039ZM3.43349 11.1878C3.72798 11.2343 3.99198 11.3958 4.16747 11.6368C4.34296 11.8778 4.41559 12.1786 4.36941 12.4732C4.21034 13.4849 4.21034 14.5152 4.36941 15.5269C4.41575 15.8216 4.3431 16.1227 4.16744 16.3639C3.99178 16.6051 3.72751 16.7667 3.43274 16.813C3.13798 16.8594 2.83688 16.7867 2.59569 16.6111C2.35449 16.4354 2.19295 16.1711 2.14661 15.8764C1.95113 14.6331 1.95113 13.3669 2.14661 12.1237C2.16962 11.9777 2.22117 11.8377 2.2983 11.7117C2.37544 11.5857 2.47665 11.476 2.59615 11.3891C2.71566 11.3022 2.85112 11.2397 2.99479 11.2052C3.13847 11.1706 3.28754 11.1647 3.43349 11.1878V11.1878ZM24.5666 11.1878C24.7125 11.1647 24.8616 11.1706 25.0053 11.2052C25.1489 11.2397 25.2844 11.3022 25.4039 11.3891C25.5234 11.476 25.6246 11.5857 25.7018 11.7117C25.7789 11.8377 25.8304 11.9777 25.8534 12.1237C26.0489 13.367 26.0489 14.6331 25.8534 15.8764C25.8071 16.1711 25.6456 16.4354 25.4044 16.6111C25.1632 16.7867 24.8621 16.8594 24.5673 16.813C24.2726 16.7667 24.0083 16.6051 23.8326 16.3639C23.657 16.1227 23.5843 15.8216 23.6306 15.5269C23.7898 14.5152 23.7898 13.4849 23.6306 12.4732C23.5845 12.1786 23.6571 11.8778 23.8326 11.6368C24.0081 11.3958 24.2721 11.2343 24.5666 11.1878V11.1878ZM4.54039 19.482C4.65984 19.395 4.79526 19.3324 4.9389 19.2978C5.08255 19.2631 5.23162 19.2571 5.37759 19.2801C5.52356 19.3031 5.66357 19.3546 5.78963 19.4317C5.91568 19.5088 6.02531 19.61 6.11225 19.7295C6.71457 20.5577 7.44282 21.2864 8.27055 21.8893C8.50347 22.068 8.65733 22.3306 8.6993 22.6211C8.74126 22.9116 8.66799 23.207 8.49515 23.4443C8.3223 23.6815 8.06355 23.8418 7.77415 23.8909C7.48475 23.94 7.18761 23.8741 6.94617 23.7071C5.9282 22.9667 5.03243 22.0714 4.29142 21.0539C4.2045 20.9343 4.14199 20.7989 4.10746 20.6551C4.07293 20.5114 4.06706 20.3623 4.09019 20.2164C4.11331 20.0704 4.16497 19.9304 4.24222 19.8044C4.31947 19.6784 4.42079 19.5689 4.54039 19.482V19.482ZM23.4597 19.482C23.5792 19.569 23.6803 19.6786 23.7574 19.8046C23.8346 19.9307 23.8861 20.0707 23.9091 20.2167C23.932 20.3627 23.926 20.5117 23.8914 20.6554C23.8567 20.799 23.7941 20.9344 23.7071 21.0539C22.9667 22.0719 22.0715 22.9677 21.0539 23.7086C20.9343 23.7956 20.7988 23.8582 20.6551 23.8927C20.5113 23.9273 20.3622 23.9333 20.2162 23.9102C20.0701 23.8872 19.9301 23.8356 19.804 23.7584C19.6779 23.6812 19.5682 23.58 19.4813 23.4604C19.3943 23.3409 19.3318 23.2053 19.2972 23.0616C19.2626 22.9179 19.2566 22.7687 19.2797 22.6227C19.3027 22.4767 19.3543 22.3366 19.4315 22.2105C19.5087 22.0844 19.6099 21.9748 19.7295 21.8878C20.5576 21.2855 21.2864 20.5572 21.8893 19.7295C22.0649 19.4886 22.3288 19.3273 22.6233 19.2809C22.9177 19.2345 23.2185 19.3068 23.4597 19.482V19.482ZM11.1878 24.5666C11.2343 24.2721 11.3958 24.0081 11.6368 23.8326C11.8778 23.6571 12.1786 23.5845 12.4732 23.6306C13.4849 23.7898 14.5152 23.7898 15.5269 23.6306C15.6728 23.6077 15.8219 23.6137 15.9655 23.6484C16.1091 23.683 16.2445 23.7456 16.3639 23.8326C16.4834 23.9196 16.5845 24.0292 16.6616 24.1553C16.7386 24.2814 16.7901 24.4214 16.813 24.5673C16.836 24.7133 16.8299 24.8623 16.7953 25.0059C16.7606 25.1495 16.698 25.2849 16.6111 25.4044C16.5241 25.5238 16.4144 25.6249 16.2884 25.702C16.1623 25.779 16.0223 25.8305 15.8764 25.8534C14.6331 26.0489 13.367 26.0489 12.1237 25.8534C11.9777 25.8304 11.8377 25.7789 11.7117 25.7018C11.5857 25.6246 11.476 25.5234 11.3891 25.4039C11.3022 25.2844 11.2397 25.1489 11.2052 25.0053C11.1706 24.8616 11.1647 24.7125 11.1878 24.5666V24.5666Z" fill="#388EF4"/>
</svg>
