<svg width="24" height="24" viewBox="0 0 24 24" fill="none" xmlns="http://www.w3.org/2000/svg">
<path d="M13.125 10.125C13.125 12 12 14.625 12 14.625L13.125 10.125ZM12.375 10.875C12.375 10.875 13.5 7.87501 10.875 5.62501C8.25 3.375 4.125 4.12501 4.125 4.12501C4.125 4.12501 4.125 7.12501 6.375 9.37501C8.625 11.625 12.375 10.875 12.375 10.875ZM13.125 9.37501C13.125 9.37501 12 6.37501 14.625 4.12501C17.25 1.875 21.375 2.625 21.375 2.625C21.375 2.625 21.375 5.62501 19.125 7.87501C16.875 10.125 13.125 9.37501 13.125 9.37501ZM7.125 14.625H16.875C16.875 14.625 17.625 21.375 12 21.375C6.375 21.375 7.125 14.625 7.125 14.625Z" stroke="#388EF4" stroke-width="2" stroke-linecap="round" stroke-linejoin="round"/>
</svg>
