<svg width="32" height="32" viewBox="0 0 32 32" fill="none" xmlns="http://www.w3.org/2000/svg">
<path d="M32 16C32 24.8366 24.8366 32 16 32C7.16344 32 0 24.8366 0 16C0 7.16344 7.16344 0 16 0C24.8366 0 32 7.16344 32 16Z" fill="#388EF4"/>
<path d="M27.6364 16C27.6364 22.4266 22.4266 27.6364 16 27.6364C9.57341 27.6364 4.36364 22.4266 4.36364 16C4.36364 9.57341 9.57341 4.36364 16 4.36364C22.4266 4.36364 27.6364 9.57341 27.6364 16Z" fill="#F7F7F7"/>
<path d="M20.7833 11.2167C21.7293 12.1628 22.3736 13.3681 22.6346 14.6803C22.8956 15.9925 22.7617 17.3526 22.2497 18.5887C21.7377 19.8248 20.8707 20.8812 19.7582 21.6245C18.6458 22.3678 17.3379 22.7646 16 22.7646C14.6621 22.7646 13.3543 22.3678 12.2418 21.6245C11.1294 20.8812 10.2624 19.8248 9.75039 18.5887C9.2384 17.3526 9.10444 15.9925 9.36545 14.6803C9.62646 13.3681 10.2707 12.1628 11.2168 11.2167L16 16L20.7833 11.2167Z" fill="#388EF4"/>
</svg>
