<svg width="28" height="28" viewBox="0 0 28 28" fill="none" xmlns="http://www.w3.org/2000/svg">
<path d="M24.115 5.74001C24.3468 5.4912 24.473 5.16212 24.467 4.82209C24.461 4.48206 24.3233 4.15764 24.0828 3.91717C23.8423 3.6767 23.5179 3.53895 23.1779 3.53295C22.8379 3.52695 22.5088 3.65317 22.26 3.88501L18.375 7.77001V5.68751C18.375 5.33941 18.2367 5.00557 17.9906 4.75943C17.7444 4.51329 17.4106 4.37501 17.0625 4.37501C16.7144 4.37501 16.3805 4.51329 16.1344 4.75943C15.8883 5.00557 15.75 5.33941 15.75 5.68751V10.7625C15.75 10.7923 15.75 10.8238 15.7535 10.8535C15.7411 11.0396 15.7686 11.2263 15.8343 11.4009C15.8999 11.5755 16.0021 11.7341 16.134 11.866C16.2659 11.9979 16.4245 12.1001 16.5991 12.1657C16.7737 12.2313 16.9603 12.2589 17.1465 12.2465C17.1768 12.2486 17.2071 12.2498 17.2375 12.25H22.3125C22.6606 12.25 22.9944 12.1117 23.2406 11.8656C23.4867 11.6194 23.625 11.2856 23.625 10.9375C23.625 10.5894 23.4867 10.2556 23.2406 10.0094C22.9944 9.76329 22.6606 9.62501 22.3125 9.62501H20.23L24.115 5.74001ZM10.9375 23.625C10.5894 23.625 10.2555 23.4867 10.0094 23.2406C9.76326 22.9944 9.62498 22.6606 9.62498 22.3125V20.23L5.73998 24.115C5.49117 24.3468 5.16209 24.4731 4.82206 24.4671C4.48203 24.4611 4.15761 24.3233 3.91714 24.0828C3.67666 23.8424 3.53892 23.5179 3.53292 23.1779C3.52692 22.8379 3.65314 22.5088 3.88498 22.26L7.76998 18.375H5.68748C5.33938 18.375 5.00554 18.2367 4.7594 17.9906C4.51326 17.7444 4.37498 17.4106 4.37498 17.0625C4.37498 16.7144 4.51326 16.3806 4.7594 16.1344C5.00554 15.8883 5.33938 15.75 5.68748 15.75H10.7625C10.7928 15.7503 10.8232 15.7514 10.8535 15.7535C11.0396 15.7411 11.2262 15.7687 11.4009 15.8343C11.5755 15.8999 11.7341 16.0021 11.866 16.134C11.9979 16.2659 12.1001 16.4245 12.1657 16.5991C12.2313 16.7737 12.2589 16.9604 12.2465 17.1465C12.2486 17.1768 12.2497 17.2071 12.25 17.2375V22.3125C12.25 22.6606 12.1117 22.9944 11.8656 23.2406C11.6194 23.4867 11.2856 23.625 10.9375 23.625Z" fill="#388EF4"/>
</svg>
